<?xml version="1.0" standalone="no"?>
<!DOCTYPE svg PUBLIC "-//W3C//DTD SVG 20010904//EN"
 "http://www.w3.org/TR/2001/REC-SVG-20010904/DTD/svg10.dtd">
<svg version="1.0" xmlns="http://www.w3.org/2000/svg"
 width="564.000000pt" height="564.000000pt" viewBox="0 0 564.000000 564.000000"
 preserveAspectRatio="xMidYMid meet">
<metadata>
Created by potrace 1.16, written by Peter Selinger 2001-2019
</metadata>
<g transform="translate(0.000000,564.000000) scale(0.100000,-0.100000)"
fill="#000000" stroke="none">
<path d="M0 2820 l0 -2820 2820 0 2820 0 0 2820 0 2820 -2820 0 -2820 0 0
-2820z m2157 1448 c36 -40 44 -66 44 -144 0 -64 -3 -80 -20 -97 -19 -19 -21
-19 -45 -3 -41 27 -58 71 -58 152 0 106 32 143 79 92z m2291 -7 c-5 -14 -8
-86 -7 -160 1 -123 4 -138 22 -152 15 -12 17 -18 7 -24 -9 -6 -11 -4 -5 5 6
10 4 12 -9 7 -11 -5 -15 -3 -10 4 4 7 1 10 -7 7 -17 -6 -76 22 -118 58 -40 33
-61 83 -61 143 0 76 25 95 92 67 13 -6 17 -1 20 21 2 15 8 27 15 26 7 -2 10 4
7 12 -5 12 1 15 29 13 32 -3 34 -5 25 -27z m-2169 -56 c50 -25 81 -129 64
-209 -12 -53 -32 -65 -77 -43 l-36 17 0 118 c0 105 3 132 17 132 2 0 17 -7 32
-15z m194 -117 c4 -13 0 -18 -13 -18 -11 0 -22 5 -25 10 -13 21 -35 10 -35
-18 0 -21 8 -32 35 -46 19 -11 35 -26 35 -34 0 -14 -13 -13 -52 3 -15 6 -18 2
-18 -29 0 -29 5 -38 28 -50 16 -8 34 -22 41 -30 24 -29 -14 -29 -58 -2 l-41
26 0 118 c0 65 3 121 6 125 11 10 92 -35 97 -55z m-828 -239 c9 -28 -13 -104
-36 -125 -18 -16 -27 -54 -13 -54 3 0 20 11 36 26 34 28 81 30 86 3 2 -9 -8
-29 -21 -45 -18 -21 -36 -29 -73 -33 l-49 -6 -3 -45 -3 -45 23 22 c47 44 108
53 108 16 -1 -40 -48 -73 -104 -73 l-36 0 0 -52 c1 -49 2 -51 15 -34 23 30 67
56 98 56 22 0 27 -4 27 -25 0 -42 -33 -66 -105 -77 -13 -2 -21 -14 -26 -36 -7
-34 7 -55 17 -27 8 21 56 45 90 45 22 0 26 -4 21 -22 -2 -13 -8 -30 -11 -39
-5 -12 0 -19 21 -24 18 -5 22 -10 12 -12 -11 -3 -14 -12 -11 -34 7 -47 -36
-79 -113 -84 -5 0 -9 -10 -7 -23 2 -12 -1 -22 -7 -22 -10 0 -27 65 -23 88 2 7
-9 12 -30 12 -63 0 -109 12 -104 26 7 18 -8 18 -23 0 -9 -11 -9 -15 1 -19 10
-3 11 -8 1 -26 -48 -80 42 -154 187 -154 140 1 233 76 186 148 -14 22 -15 28
-3 45 14 20 14 19 35 -3 47 -50 47 -120 -1 -165 -49 -46 -116 -66 -217 -67
-86 0 -101 3 -155 30 -72 36 -100 71 -100 126 0 36 6 46 44 78 48 41 51 71 8
71 -30 0 -65 24 -49 34 7 4 12 3 12 -2 0 -6 10 -8 23 -6 20 4 21 4 2 -5 -19
-9 -19 -10 3 -10 12 -1 22 3 22 7 0 10 27 8 51 -2 9 -4 28 -8 43 -10 14 -1 33
-11 41 -22 15 -18 15 -18 13 5 -2 15 -11 26 -23 28 -23 5 -55 10 -71 12 -8 1
-54 82 -54 96 0 3 11 5 24 5 14 0 28 5 32 12 10 15 -23 37 -46 31 -11 -3 -20
0 -20 6 0 6 6 11 13 11 9 0 9 2 -1 8 -19 12 4 72 28 72 10 0 41 -22 69 -49
l51 -50 0 50 c0 46 -2 49 -25 49 -62 0 -125 69 -95 105 11 13 17 12 52 -7 22
-13 47 -36 56 -53 l16 -30 7 40 c13 68 12 72 -21 72 -38 0 -82 31 -95 67 -11
31 4 47 36 39 21 -6 66 -46 87 -78 11 -17 12 -15 6 20 -12 70 -9 113 11 134
23 27 52 27 60 0z m2505 -262 c18 -65 30 -120 27 -123 -11 -11 -25 6 -32 36
-8 37 -62 71 -76 48 -5 -7 -9 -16 -9 -20 0 -14 -18 -9 -23 6 -6 15 27 146 45
180 17 31 33 1 68 -127z m248 -29 c5 -7 22 -58 37 -113 14 -55 29 -108 31
-117 4 -12 0 -18 -11 -18 -9 0 -18 12 -22 31 -4 20 -17 38 -37 50 -31 19 -31
19 -40 -1 -5 -11 -13 -20 -18 -20 -19 0 -18 31 2 102 29 99 28 98 38 98 5 0
14 -6 20 -12z m-1934 -220 c78 -45 184 -106 236 -137 52 -30 110 -64 129 -74
66 -36 111 -67 111 -77 0 -15 -5 -13 -88 34 -42 24 -95 54 -117 66 -22 12 -89
50 -150 85 -60 34 -130 73 -155 87 -97 54 -120 70 -120 84 0 8 3 14 6 14 4 0
70 -37 148 -82z m-48 -59 c94 -54 814 -468 874 -502 19 -11 57 -32 85 -48 49
-27 69 -49 44 -49 -7 0 -46 20 -88 44 -79 45 -545 310 -806 458 -82 47 -165
93 -182 102 -30 15 -46 46 -24 46 4 0 48 -23 97 -51z m32 -273 c34 -20 88 -51
120 -69 31 -19 122 -71 202 -117 149 -85 178 -105 168 -116 -6 -6 -142 68
-453 246 -177 101 -180 103 -170 119 4 8 16 6 38 -8 18 -11 60 -36 95 -55z
m791 -109 c179 -103 226 -137 188 -137 -24 0 -402 219 -405 235 -2 8 2 15 10
15 7 -1 100 -51 207 -113z m-613 -78 c397 -227 471 -269 475 -269 3 0 4 30 4
67 0 66 0 67 -35 86 -84 47 -112 69 -102 79 10 10 109 -42 154 -79 9 -8 160
-97 335 -198 l318 -183 3 -208 c1 -114 -1 -211 -5 -215 -7 -7 -129 60 -523
290 -69 40 -129 76 -133 81 -5 4 -9 40 -9 79 l-1 70 -68 41 c-38 23 -69 45
-69 50 0 18 32 10 86 -21 l54 -30 0 23 c0 20 -54 54 -398 250 -345 197 -439
258 -394 258 5 0 144 -77 308 -171z m-172 -75 c72 -42 156 -91 186 -109 30
-17 110 -63 177 -101 67 -38 123 -75 123 -81 0 -7 -3 -13 -6 -13 -5 0 -115 62
-414 233 -58 33 -127 72 -155 88 -27 15 -51 35 -53 43 -2 9 0 16 3 16 4 0 66
-34 139 -76z m-1652 -125 c-1 -6 2 -8 8 -4 5 3 18 1 27 -5 12 -8 13 -10 3 -7
-12 4 -15 -5 -12 -47 5 -91 4 -207 -2 -213 -4 -4 -303 156 -359 193 -16 10 -3
20 109 82 l128 71 51 -29 c27 -16 49 -35 47 -41z m2098 -393 c626 -366 725
-427 728 -449 3 -21 -8 -31 -80 -72 -46 -27 -135 -78 -198 -115 -63 -37 -254
-147 -423 -244 l-308 -178 -47 30 c-26 16 -76 46 -112 66 -76 43 -274 163
-310 189 -13 9 -19 17 -13 17 7 0 15 -4 18 -10 3 -5 14 -10 23 -9 14 0 15 2 2
7 -8 4 -33 18 -55 32 -109 67 -594 355 -837 497 -71 41 -128 78 -128 81 0 4
85 55 188 115 103 59 327 188 497 287 171 99 315 179 320 179 6 0 336 -190
735 -423z m1267 -400 c21 -8 58 -17 83 -20 65 -7 80 -30 80 -121 0 -72 -21
-135 -44 -135 -6 0 -5 5 2 12 16 16 16 169 0 190 -7 8 -23 18 -35 21 -20 4
-23 1 -23 -22 0 -43 -51 -82 -121 -95 -20 -3 -36 -12 -37 -19 -9 -60 -10 -211
-2 -231 6 -18 6 -26 -1 -26 -6 0 -8 -4 -4 -9 3 -5 0 -13 -7 -17 -9 -6 -5 -10
12 -15 19 -5 14 -7 -22 -8 -54 -1 -124 23 -138 48 -11 21 -15 379 -5 405 20
49 177 74 262 42z m-2651 -238 c90 -72 164 -134 164 -138 0 -4 -85 -60 -190
-125 -104 -65 -190 -121 -190 -124 0 -3 4 -12 9 -20 11 -17 3 -20 229 124 100
63 188 115 196 115 8 0 95 -25 193 -55 98 -30 183 -55 190 -55 34 0 15 -23
-54 -66 -43 -26 -121 -74 -173 -107 -52 -33 -108 -67 -124 -76 -15 -9 -38 -24
-50 -34 -17 -14 -14 -14 17 3 44 24 59 26 31 5 -17 -13 -17 -14 -2 -15 9 0 19
-4 22 -9 4 -5 -2 -7 -11 -5 -23 5 -54 -15 -35 -23 6 -2 12 -11 12 -18 0 -8 4
-16 8 -19 16 -10 379 186 389 209 4 11 10 11 29 3 13 -6 24 -14 24 -18 0 -4
-22 -19 -49 -33 -27 -15 -54 -33 -60 -41 -7 -8 -19 -12 -27 -9 -7 3 -17 -2
-20 -11 -3 -9 -10 -13 -15 -10 -5 3 -9 1 -9 -4 0 -5 -6 -9 -12 -9 -7 0 -58
-26 -113 -58 -55 -32 -125 -72 -155 -88 -30 -16 -80 -45 -111 -63 -31 -19 -63
-34 -72 -34 -8 0 -57 24 -108 54 -125 71 -485 278 -529 303 -19 11 -68 39
-108 63 -60 34 -71 44 -61 56 14 17 39 18 39 2 0 -7 37 -34 83 -59 45 -26 187
-106 315 -178 130 -74 238 -129 245 -125 7 4 9 3 4 -1 -6 -7 95 -74 113 -75 3
0 5 28 4 61 -1 73 16 61 -204 148 -85 34 -167 69 -182 79 -68 42 -377 278
-375 285 2 7 543 325 556 326 2 1 77 -58 167 -131z m2165 -237 c86 -45 94 -85
25 -125 -155 -90 -284 -156 -306 -156 -48 0 -90 21 -106 52 -15 29 -14 33 16
94 53 109 136 162 256 163 49 1 72 -5 115 -28z m857 -89 c65 -38 126 -71 135
-75 17 -6 24 -27 9 -27 -5 0 -34 -15 -65 -34 -31 -19 -57 -31 -57 -28 0 4 -4
2 -8 -3 -7 -10 -146 -95 -155 -95 -2 0 -66 -36 -141 -80 -75 -44 -138 -80
-140 -80 -11 0 -15 35 -5 46 13 16 49 19 49 4 0 -5 -9 -10 -19 -10 -11 0 -23
-4 -26 -10 -3 -5 -1 -10 6 -10 17 0 81 41 74 48 -3 3 -27 6 -53 7 -40 0 -47 3
-44 19 2 11 -1 15 -8 11 -8 -5 -10 13 -7 69 2 49 0 77 -7 79 -14 6 39 27 67
27 16 0 18 3 9 12 -9 9 -7 14 6 24 9 7 14 15 11 18 -3 3 -15 -3 -27 -14 -24
-23 -77 -46 -67 -30 3 6 11 10 16 10 6 0 25 11 42 24 52 39 147 87 159 80 7
-5 8 -2 3 6 -6 9 -1 10 16 5 16 -4 20 -3 11 3 -10 7 -5 14 23 31 20 12 41 18
47 15 6 -4 8 -2 4 4 -5 8 2 15 22 21 1 1 55 -30 120 -67z m301 -172 c21 -11
22 -14 8 -22 -21 -11 -22 -44 -2 -55 11 -7 6 -13 -22 -28 -134 -71 -336 -183
-443 -244 l-125 -73 -45 24 c-36 19 -46 29 -48 53 -2 24 3 33 28 47 19 11 43
16 63 13 27 -4 28 -3 7 3 -24 8 -23 10 30 40 62 36 79 40 59 15 -13 -16 -12
-17 3 -4 10 7 16 17 13 21 -4 6 111 78 289 180 17 9 51 29 76 43 39 23 47 24
65 13 11 -7 31 -19 44 -26z m-2193 -145 c71 -41 130 -79 132 -84 2 -5 -52 -41
-120 -81 -68 -40 -151 -90 -186 -111 -69 -43 -88 -47 -118 -24 -10 8 -27 15
-36 15 -10 0 -18 4 -18 10 0 5 -4 9 -9 7 -6 -1 -46 18 -90 43 -119 66 -119 66
102 194 100 58 189 106 198 106 9 0 74 -34 145 -75z m1261 -8 c7 0 10 -4 8 -8
-7 -10 25 -20 37 -12 6 3 8 2 5 -4 -6 -10 73 -53 99 -53 9 0 12 -5 8 -12 -5
-7 -3 -8 6 -3 17 10 30 -12 30 -52 0 -39 -3 -40 -55 -8 -43 27 -60 32 -49 13
4 -7 3 -8 -5 -4 -6 4 -9 11 -6 16 3 5 -8 16 -24 25 -36 18 -45 19 -35 3 4 -7
3 -8 -5 -4 -6 4 -9 11 -6 16 3 5 -17 21 -45 36 -42 23 -50 32 -51 58 -2 28 -2
27 -9 -9 l-7 -40 -2 41 c0 22 2 43 5 47 3 3 25 -6 48 -20 22 -15 46 -26 53
-26z"/>
<path d="M3206 2484 c-23 -22 -20 -86 5 -118 17 -22 264 -175 393 -244 54 -29
76 -17 76 42 0 75 -24 97 -244 222 -110 63 -203 114 -207 114 -4 0 -15 -7 -23
-16z"/>
<path d="M2073 2519 c-18 -12 -30 -26 -26 -32 3 -6 1 -7 -6 -3 -10 7 -258
-125 -271 -144 -3 -4 -14 -10 -25 -14 -11 -3 -31 -15 -44 -25 l-23 -18 38 -22
c33 -20 42 -21 59 -10 18 11 18 10 7 -3 -11 -14 -7 -19 24 -38 35 -22 37 -22
68 -6 l31 18 -25 -20 c-28 -23 -30 -21 30 -55 25 -13 151 -87 280 -162 129
-76 260 -152 290 -170 30 -18 72 -42 93 -55 l38 -23 29 22 c16 11 35 21 42 21
6 0 -8 12 -33 28 -25 15 -54 32 -65 39 -10 7 -96 57 -190 113 l-172 101 -38
-22 c-38 -21 -39 -21 -14 0 14 11 29 21 34 21 18 0 -16 28 -56 46 -24 10 -45
21 -48 24 -3 3 -18 14 -33 24 l-29 18 39 20 c56 30 58 35 24 52 -32 17 -43 30
-16 20 8 -3 31 4 51 17 l36 22 -23 18 c-39 30 -57 32 -96 8 -36 -23 -36 -23
-15 -37 22 -14 21 -15 -20 -38 -24 -12 -42 -27 -41 -33 2 -6 -5 -7 -13 -4 -13
5 -7 12 25 31 22 13 41 28 41 33 0 5 -21 20 -47 33 -27 13 -57 32 -68 41 -11
9 5 2 35 -14 l55 -30 39 24 38 23 -41 26 c-22 15 -41 29 -41 32 0 4 6 1 14 -5
11 -9 22 -7 51 10 l37 22 -23 20 c-15 12 -6 9 24 -8 l48 -26 35 21 35 22 -53
34 c-29 19 -55 34 -58 34 -3 0 -20 -10 -37 -21z"/>
<path d="M2277 2091 c-42 -27 -42 -28 3 -51 l41 -21 35 22 c19 12 37 19 40 16
3 -3 -11 -14 -31 -25 l-37 -19 36 -21 c21 -12 42 -22 48 -22 13 0 68 32 68 40
0 10 -146 100 -161 99 -8 0 -26 -8 -42 -18z"/>
<path d="M3971 1803 c-44 -23 -60 -47 -45 -70 22 -37 75 -54 151 -51 82 4 128
28 128 68 0 13 -12 32 -28 44 -39 29 -158 35 -206 9z"/>
</g>
</svg>
